<svg width="512" height="360" viewBox="0 0 512 360" xmlns="http://www.w3.org/2000/svg">
  <defs>
    <linearGradient id="bg3" x1="0" y1="0" x2="1" y2="1">
      <stop offset="0%" stop-color="#06111f" />
      <stop offset="100%" stop-color="#12223f" />
    </linearGradient>
  </defs>
  <rect width="512" height="360" rx="24" fill="url(#bg3)" />
  <rect x="42" y="38" width="428" height="272" rx="24" fill="#10224c" />
  <rect x="72" y="72" width="368" height="22" rx="11" fill="#0d1735" />
  <circle cx="98" cy="83" r="6" fill="#f15c79" />
  <circle cx="122" cy="83" r="6" fill="#fbbf24" />
  <circle cx="146" cy="83" r="6" fill="#34d399" />
  <rect x="72" y="118" width="360" height="18" rx="9" fill="#15254d" />
  <rect x="72" y="148" width="192" height="18" rx="9" fill="#1d376e" />
  <rect x="72" y="178" width="224" height="18" rx="9" fill="#172f61" />
  <rect x="72" y="208" width="312" height="18" rx="9" fill="#0f2147" />
  <rect x="72" y="238" width="160" height="16" rx="8" fill="#243b7c" />
  <rect x="240" y="148" width="176" height="108" rx="14" fill="#0f1f3e" />
  <rect x="264" y="168" width="124" height="16" rx="8" fill="#28477f" />
  <rect x="264" y="192" width="92" height="12" rx="6" fill="#1f395e" />
  <rect x="264" y="216" width="132" height="12" rx="6" fill="#223e76" />
  <rect x="276" y="254" width="24" height="24" rx="6" fill="#4ade80" />
  <rect x="304" y="254" width="28" height="24" rx="6" fill="#2563eb" />
  <rect x="342" y="254" width="28" height="24" rx="6" fill="#fbbf24" />
  <text x="256" y="344" font-family="Inter, Arial, sans-serif" font-size="18" fill="#f8fafc" text-anchor="middle">Contract Management Library</text>
</svg>
