<svg width="512" height="360" viewBox="0 0 512 360" xmlns="http://www.w3.org/2000/svg">
  <defs>
    <linearGradient id="bg5" x1="0" y1="0" x2="1" y2="1">
      <stop offset="0%" stop-color="#081327" />
      <stop offset="100%" stop-color="#12264a" />
    </linearGradient>
  </defs>
  <rect width="512" height="360" rx="24" fill="url(#bg5)" />
  <rect x="52" y="40" width="408" height="280" rx="24" fill="#10234a" />
  <rect x="76" y="80" width="360" height="28" rx="14" fill="#0c1942" />
  <circle cx="102" cy="94" r="6" fill="#f87171" />
  <circle cx="126" cy="94" r="6" fill="#fbbf24" />
  <circle cx="150" cy="94" r="6" fill="#34d399" />
  <rect x="86" y="124" width="340" height="20" rx="10" fill="#12264e" />
  <rect x="86" y="154" width="132" height="22" rx="12" fill="#1f346d" />
  <rect x="232" y="154" width="180" height="22" rx="12" fill="#1f346d" />
  <rect x="86" y="190" width="340" height="104" rx="18" fill="#091421" />
  <rect x="106" y="206" width="100" height="16" rx="8" fill="#2e4f93" />
  <rect x="106" y="232" width="220" height="12" rx="6" fill="#15305c" />
  <rect x="106" y="254" width="200" height="12" rx="6" fill="#1a366e" />
  <rect x="330" y="206" width="80" height="80" rx="16" fill="#1f3f75" />
  <path d="M338 222 H398 L378 266 H338 Z" fill="#60a5fa" />
  <text x="256" y="344" font-family="Inter, Arial, sans-serif" font-size="18" fill="#f8fafc" text-anchor="middle">WordPress Website</text>
</svg>
