<svg width="512" height="360" viewBox="0 0 512 360" xmlns="http://www.w3.org/2000/svg">
  <defs>
    <linearGradient id="bg" x1="0" y1="0" x2="1" y2="1">
      <stop offset="0%" stop-color="#070b16" />
      <stop offset="100%" stop-color="#111a2d" />
    </linearGradient>
    <linearGradient id="screen" x1="0" y1="0" x2="1" y2="1">
      <stop offset="0%" stop-color="#2f3b65" />
      <stop offset="100%" stop-color="#182249" />
    </linearGradient>
    <linearGradient id="accent" x1="0" y1="0" x2="1" y2="1">
      <stop offset="0%" stop-color="#7c3aed" />
      <stop offset="100%" stop-color="#5b21b6" />
    </linearGradient>
  </defs>
  <rect width="512" height="360" rx="24" fill="url(#bg)" />
  <rect x="32" y="28" width="448" height="244" rx="20" fill="url(#screen)" />
  <circle cx="96" cy="48" r="8" fill="#fff" opacity="0.65" />
  <circle cx="120" cy="48" r="8" fill="#fff" opacity="0.45" />
  <circle cx="144" cy="48" r="8" fill="#fff" opacity="0.25" />
  <rect x="60" y="78" width="392" height="20" rx="10" fill="#090c19" />
  <rect x="86" y="88" width="96" height="10" rx="5" fill="#7c3aed" />
  <rect x="96" y="120" width="112" height="18" rx="8" fill="#1f2b4d" />
  <rect x="96" y="150" width="64" height="16" rx="8" fill="#334070" />
  <rect x="168" y="150" width="120" height="16" rx="8" fill="#2b345c" />
  <rect x="96" y="186" width="192" height="18" rx="8" fill="#1f2b4d" />
  <rect x="312" y="120" width="120" height="78" rx="14" fill="#1f2b4d" />
  <path d="M340 146 L372 164 L340 182 Z" fill="url(#accent)" />
  <rect x="68" y="292" width="376" height="36" rx="18" fill="#152040" />
  <circle cx="112" cy="310" r="6" fill="#7c3aed" />
  <rect x="130" y="302" width="104" height="16" rx="8" fill="#16224c" />
  <rect x="250" y="302" width="124" height="16" rx="8" fill="#16224c" />
  <text x="256" y="336" font-family="Inter, Arial, sans-serif" font-size="18" fill="#f8fafc" text-anchor="middle">Digital Signage Display</text>
</svg>
