<svg width="512" height="360" viewBox="0 0 512 360" xmlns="http://www.w3.org/2000/svg">
  <defs>
    <linearGradient id="bg2" x1="0" y1="0" x2="1" y2="1">
      <stop offset="0%" stop-color="#081020" />
      <stop offset="100%" stop-color="#16213f" />
    </linearGradient>
    <linearGradient id="panel" x1="0" y1="0" x2="1" y2="1">
      <stop offset="0%" stop-color="#1d2b53" />
      <stop offset="100%" stop-color="#10204a" />
    </linearGradient>
  </defs>
  <rect width="512" height="360" rx="24" fill="url(#bg2)" />
  <rect x="28" y="32" width="456" height="276" rx="24" fill="url(#panel)" />
  <rect x="56" y="72" width="400" height="22" rx="11" fill="#0b1130" />
  <circle cx="82" cy="83" r="6" fill="#f471a4" />
  <circle cx="104" cy="83" r="6" fill="#fbbf24" />
  <circle cx="126" cy="83" r="6" fill="#34d399" />
  <rect x="56" y="112" width="180" height="18" rx="9" fill="#16264a" />
  <rect x="56" y="144" width="392" height="18" rx="9" fill="#10204a" />
  <rect x="56" y="176" width="240" height="18" rx="9" fill="#12214a" />
  <rect x="56" y="208" width="260" height="18" rx="9" fill="#121f46" />
  <rect x="56" y="240" width="360" height="18" rx="9" fill="#10204a" />
  <rect x="56" y="272" width="160" height="18" rx="9" fill="#1c345f" />
  <rect x="284" y="112" width="160" height="112" rx="16" fill="#18204e" />
  <rect x="298" y="126" width="124" height="14" rx="7" fill="#2a3f7a" />
  <rect x="298" y="152" width="84" height="14" rx="7" fill="#1b2c59" />
  <rect x="298" y="178" width="108" height="14" rx="7" fill="#2e4c8d" />
  <text x="256" y="340" font-family="Inter, Arial, sans-serif" font-size="18" fill="#f8fafc" text-anchor="middle">SharePoint Intranet Portal</text>
</svg>
