<svg width="512" height="360" viewBox="0 0 512 360" xmlns="http://www.w3.org/2000/svg">
  <defs>
    <linearGradient id="bg4" x1="0" y1="0" x2="1" y2="1">
      <stop offset="0%" stop-color="#081223" />
      <stop offset="100%" stop-color="#122043" />
    </linearGradient>
  </defs>
  <rect width="512" height="360" rx="24" fill="url(#bg4)" />
  <rect x="44" y="34" width="424" height="268" rx="24" fill="#10214b" />
  <rect x="72" y="72" width="368" height="20" rx="10" fill="#0c1940" />
  <circle cx="96" cy="82" r="6" fill="#f87171" />
  <circle cx="118" cy="82" r="6" fill="#fbbf24" />
  <circle cx="140" cy="82" r="6" fill="#34d399" />
  <rect x="72" y="106" width="164" height="16" rx="8" fill="#1e3268" />
  <rect x="72" y="132" width="300" height="92" rx="16" fill="#0d1735" />
  <rect x="84" y="146" width="72" height="14" rx="7" fill="#7c3aed" />
  <rect x="84" y="170" width="140" height="10" rx="5" fill="#1f2f56" />
  <rect x="84" y="188" width="160" height="10" rx="5" fill="#1a2950" />
  <rect x="84" y="206" width="100" height="10" rx="5" fill="#1f335f" />
  <rect x="260" y="146" width="120" height="12" rx="6" fill="#2d4b88" />
  <rect x="260" y="166" width="90" height="12" rx="6" fill="#2a477d" />
  <rect x="260" y="186" width="110" height="12" rx="6" fill="#2b4b83" />
  <rect x="260" y="206" width="62" height="12" rx="6" fill="#1f3565" />
  <rect x="72" y="222" width="320" height="12" rx="6" fill="#153057" />
  <text x="256" y="344" font-family="Inter, Arial, sans-serif" font-size="18" fill="#f8fafc" text-anchor="middle">Custom HTML / JS App</text>
</svg>
