<svg width="512" height="360" viewBox="0 0 512 360" xmlns="http://www.w3.org/2000/svg">
  <defs>
    <linearGradient id="bg6" x1="0" y1="0" x2="1" y2="1">
      <stop offset="0%" stop-color="#071224" />
      <stop offset="100%" stop-color="#13244b" />
    </linearGradient>
  </defs>
  <rect width="512" height="360" rx="24" fill="url(#bg6)" />
  <rect x="48" y="36" width="416" height="288" rx="24" fill="#12244e" />
  <rect x="80" y="74" width="352" height="24" rx="12" fill="#0c1c3f" />
  <circle cx="102" cy="86" r="6" fill="#f87171" />
  <circle cx="126" cy="86" r="6" fill="#fbbf24" />
  <circle cx="150" cy="86" r="6" fill="#34d399" />
  <rect x="80" y="118" width="160" height="30" rx="10" fill="#193359" />
  <rect x="80" y="158" width="160" height="22" rx="10" fill="#223d6e" />
  <rect x="80" y="190" width="160" height="22" rx="10" fill="#15325f" />
  <rect x="264" y="118" width="152" height="104" rx="16" fill="#0d1f3f" />
  <rect x="288" y="138" width="104" height="22" rx="10" fill="#344ea0" />
  <rect x="288" y="166" width="72" height="16" rx="8" fill="#1e3775" />
  <rect x="288" y="188" width="108" height="16" rx="8" fill="#243f7b" />
  <rect x="140" y="250" width="120" height="20" rx="10" fill="#1c3469" />
  <rect x="276" y="250" width="80" height="20" rx="10" fill="#1f3b72" />
  <rect x="370" y="238" width="60" height="40" rx="10" fill="#2563eb" />
  <path d="M388 248 H402 L398 268 H384 Z" fill="#fff" />
  <text x="256" y="344" font-family="Inter, Arial, sans-serif" font-size="18" fill="#f8fafc" text-anchor="middle">Shopify / Frontend Store</text>
</svg>
